<svg xmlns="http://www.w3.org/2000/svg" viewBox="0 0 418.39
90.75"><defs><style>.cls-1{fill:#14140a;}</style></defs><title>patater-mast</title><g
id="Layer_2" data-name="Layer 2"><g id="Layer_12" data-name="Layer 12"><path
class="cls-1" fill="#14140a" d="M342,2.09S326.34,0,318.39,0C312,0,293.1,4.3,293.1,24.12c0,13,8.08,18.91,8.08,18.91s-10.56,4-10.56,21.38c0,21.12,15.64,26.34,29.21,26.34,9,0,22.82-2.35,22.82-2.35V72.88s-18.91,1.82-23.73,1.82c-6.52,0-11-4.43-11-11.34,0-11,11-11.08,11-11.08l20.21-.13V35.46H320.48s-10.56.43-10.56-10.3c0-6.65,6-9,11.08-9,5.74,0,21,1.82,21,1.82V2.09m73.14,75.62c-8.08,0-6.13-22.29-16-26.73,7.43-3.39,13.17-10.56,13.17-22.69C412.27,7.3,395.32,1,379.93,1H356.07v88.4H374.2V55.28l5.08-.39c11.47,0,12.52,13.3,14.08,20.21,1.56,7.17,5,15.12,14.73,15.12,4,0,8.08-1.43,10.3-4.17V76.53a5.2,5.2,0,0,1-3.26,1.17ZM117.47,1V18.12h17.6V89.44h17.86l.13-71.32h17.6V1Zm75.36,0h21l23.08,88.4H220l-4-16.17H189.84l-4,16.17H168.71Zm11.08,26.08h-1l-8.08,30.12h17.08ZM76.27,1h21l23.08,88.4H103.39l-4-16.17H73.27l-4,16.17H52.15ZM87.36,27.12h-1L78.23,57.24H95.31ZM0,1H23.86C39.24,1,54.37,9.39,54.37,30.9c0,21.9-15.78,29.34-29.47,29.34H18.12V89.44H0ZM18.12,18.25V44.33H24.9A12.64,12.64,0,0,0,37,31.29c0-10.56-9.65-13-13.17-13ZM233.77,1V18.12h17.6V89.44h17.86l.13-71.32H287V1ZM374.2,39.25V18.12h10.17c3.13,0,9.91,2.09,9.91,10.56,0,7.56-5.48,10.56-9.13,10.56Z"/></g></g></svg>
