<svg xmlns="http://www.w3.org/2000/svg" viewBox="0 0 240.17
326.14"><defs><style>.cls-1{fill:#ece6b8;}.cls-2{fill:#dfd589;}.cls-3{fill:#cebf62;}.cls-4{fill:#f0ebb0;}.cls-5{fill:#9b8945;}.cls-6{fill:#c2d24f;}</style></defs><title>patater</title><g
id="Layer_2" data-name="Layer 2"><g id="patater-neutral"><path class="cls-1"
fill="#ece6b8"
d="M226.76,300.37c0,10.81-57,25.76-117.49,25.76S7.87,317.62,7.87,300.37c0-10.81,49-19.58,109.45-19.58S226.76,289.56,226.76,300.37Z"/><path
class="cls-2" fill="#dfd589"
d="M211.25,150.4c4.1-38.61,19.11-74.9-19.11-101.22-81.25-55.95-153.94-4.51-176.58,64C-19.41,219,48.39,341.43,161.15,301,242,272.05,248.16,202,211.25,150.4Z"/><path
class="cls-3" fill="#cebf62"
d="M7.62,130.06c.59-4.13,4.42-17.43,5.75-21.32,10,5.79,7.21,27,6.94,36.33-1.09,38.33,11.94,80.18,40.64,106.77,15.06,13.95,34,22.83,54,26.86A94.74,94.74,0,0,0,168.89,273c16.57-7,33.24-22.95,44.88-39.31,1.52-3.36,8.33-5.61,11.5-1.54,18.7,24-53.2,86.93-114.08,77.4C73,303.61-12.4,268.95,7.62,130.06Z"/><path
class="cls-4" fill="#f0ebb0"
d="M183.86,257.07c2.14,4.26,7.81.19,6.42-4-1.83-5.5-8.34-1.42-6.7,3.28A6,6,0,0,0,183.86,257.07Z"/><path
class="cls-4" fill="#f0ebb0"
d="M169.54,273.6a6.28,6.28,0,0,0,4.78,1.23,6.61,6.61,0,0,0,3-1.42c7.13-5.63.24-14-7-11.75C164.18,263.59,165.52,270.65,169.54,273.6Z"/><path
class="cls-4" fill="#f0ebb0"
d="M132,253.7c3.51,7,12.79.32,10.52-6.49-3-9-13.68-2.32-11,5.38A9.09,9.09,0,0,0,132,253.7Z"/><path
class="cls-4" fill="#f0ebb0"
d="M145.74,271.14c2.14,4.26,7.81.19,6.42-4-1.83-5.5-8.34-1.42-6.7,3.28A5.82,5.82,0,0,0,145.74,271.14Z"/><path
class="cls-4" fill="#f0ebb0"
d="M113.57,259c2.14,4.26,7.8.19,6.42-4-1.83-5.5-8.34-1.42-6.7,3.28A5.44,5.44,0,0,0,113.57,259Z"/><path
class="cls-4" fill="#f0ebb0"
d="M48.19,159.66c2,3,8.26.71,6.65-4.11s-7.28-1.94-7.21,2.07A3.76,3.76,0,0,0,48.19,159.66Z"/><path
class="cls-4" fill="#f0ebb0"
d="M50.51,174.14c2.35,3.14,9,1,6-3.38S48,170.84,50.51,174.14Z"/><path
class="cls-4" fill="#f0ebb0"
d="M35.67,170.92c2.09,2.89,8,1,5.27-3.07S33.47,167.88,35.67,170.92Z"/><path
class="cls-4" fill="#f0ebb0"
d="M126.27,273.84c2.14,4.26,7.8.19,6.41-4-1.83-5.51-8.34-1.42-6.7,3.28A5.65,5.65,0,0,0,126.27,273.84Z"/><path
class="cls-4" fill="#f0ebb0"
d="M195,268.5c2.14,4.26,7.8.19,6.42-4-1.84-5.5-8.34-1.42-6.71,3.28A6.38,6.38,0,0,0,195,268.5Z"/><path
class="cls-4" fill="#f0ebb0"
d="M172.4,87.31c2.14,4.26,7.8.19,6.41-4-1.83-5.5-8.34-1.42-6.7,3.28A5.69,5.69,0,0,0,172.4,87.31Z"/><path
class="cls-4" fill="#f0ebb0"
d="M160.7,138.66c2.14,4.26,7.8.19,6.42-4-1.83-5.51-8.34-1.42-6.7,3.28A5.69,5.69,0,0,0,160.7,138.66Z"/><path
class="cls-4" fill="#f0ebb0"
d="M184.33,139.41c2.14,4.26,7.8.19,6.41-4-1.84-5.5-8.34-1.42-6.7,3.28A5.22,5.22,0,0,0,184.33,139.41Z"/><path
class="cls-4" fill="#f0ebb0"
d="M204.46,249.52c4.39-3.25,3.17-14.78-3.61-13.05C193.47,238.34,197.33,254.79,204.46,249.52Z"/><path
class="cls-4" fill="#f0ebb0"
d="M26.85,154.83c9.06,6,17.41-6.44,11.34-14C30.39,131,16.59,148,26.85,154.83Z"/><path
class="cls-4" fill="#f0ebb0"
d="M181.23,119.42c9.06,6,17.41-6.44,11.34-14C184.76,95.61,171,112.61,181.23,119.42Z"/><path
class="cls-4" fill="#f0ebb0"
d="M71.4,269.12C84.5,276.53,96.89,258,86,248.43c-8.25-7.24-17.6,2.24-19.06,10.39C66.07,263.78,68.15,267.28,71.4,269.12Z"/><path
class="cls-4" fill="#f0ebb0"
d="M100.52,215.12a9.61,9.61,0,0,0-3.6.2c-9.15,2.08-4.74,12.56,2.41,13.22C106.85,229.23,109,216.42,100.52,215.12Z"/><path
class="cls-4" fill="#f0ebb0"
d="M155.86,57.78a9.61,9.61,0,0,0-3.6.2c-9.15,2.08-4.74,12.56,2.41,13.22C162.18,71.89,164.29,59.09,155.86,57.78Z"/><path
class="cls-4" fill="#f0ebb0"
d="M100.52,234.14a9.66,9.66,0,0,0-3.6.2c-9.15,2.09-4.74,12.56,2.41,13.22C106.85,248.25,109,235.45,100.52,234.14Z"/><path
class="cls-4" fill="#f0ebb0"
d="M79.91,225.16a9.72,9.72,0,0,0-3.6.19c-9.14,2.09-4.74,12.56,2.42,13.22C86.23,239.27,88.34,226.47,79.91,225.16Z"/><path
class="cls-5" fill="#9b8945"
d="M93.45,92.46a11.19,11.19,0,1,1-13.23-8.68A11.19,11.19,0,0,1,93.45,92.46Z"/><path
class="cls-5" fill="#9b8945"
d="M211.22,79a8.7,8.7,0,1,1-10.29-6.75A8.7,8.7,0,0,1,211.22,79Z"/><path
class="cls-5" fill="#9b8945"
d="M122.44,49.5a53.7,53.7,0,0,1-6.1.23,1.67,1.67,0,0,1-1.52-2.22,15.37,15.37,0,0,1,1.32-3.06c0-.05,0-.11-.07-.09a116.33,116.33,0,0,1-21.91,3.31,1.65,1.65,0,0,1-1.45-2.55c5.52-8.09,14.54-12.81,16.06-13.8,2.92-1.91,11.21-7.11,24.76-7.06,26.59.1,21.09,13.15,14.92,17.28C140.92,46.56,131.45,48.65,122.44,49.5Z"/><path
class="cls-3" fill="#cebf62"
d="M65.48,128.45c4.69,2.26,27.2,3.41,30.05-2.8,4.4-9.55-6.66-13.39-22.13-12.37C64.77,113.85,51.8,121.83,65.48,128.45Z"/><path
class="cls-3" fill="#cebf62"
d="M198.46,112.52c3.19.17,9.33-1,9.33-1s.81-6.69.82-9.91.31-5.6-.59-7.93a46.61,46.61,0,0,0-7.73,1.87C192.15,98.46,183.3,111.74,198.46,112.52Z"/><path
class="cls-5" fill="#9b8945"
d="M118.28,315.4c-28.16,0-53.81-10.4-74.69-30.78C2.85,244.89-11.2,173.55,9.42,111.14c13.9-42.08,44-74.54,80.6-86.83,23.72-8,61.33-11.06,105.78,19.55,34.73,23.91,29.64,56,24.72,87.06q-.39,2.47-.78,5A33.14,33.14,0,0,0,224,157.81c15.83,26.78,20.3,56.17,12.18,82.14-6.6,21.1-24.59,49.88-72.87,67.17A133.55,133.55,0,0,1,118.28,315.4Zm4.57-283.54a89.7,89.7,0,0,0-28.71,4.71C61.42,47.57,34.33,77,21.7,115.2,2.57,173.09,15.28,239,52.62,275.37c27.88,27.2,65.65,34.15,106.34,19.58,34.26-12.27,55.73-33,63.93-59.25a79.93,79.93,0,0,0,1.4-44.31c-.88-3.34-3.1-13.47-7.59-9.25-2.36,2.22-2.37,7.07-6.93,5.64-2.87-.9-3.16-5.26-3.5-7.72-2.51-17.91-1.19-34.43,1.47-51.16,4.88-30.78,8.73-55.09-19.28-74.38C166.65,39.49,144.39,31.87,122.85,31.87Z"/><path
class="cls-6" fill="#c2d24f" d="M124.12.91a8.92,8.92,0,0,1,1.16-.5,5.91,5.91,0,0,1,3.59-.23c2.13.64,3.44,2.91,3.57,5.13a13.52,13.52,0,0,1-1.61,6.39,10.14,10.14,0,0,1,11.61-.29,7.63,7.63,0,0,1,2.9,3.57c1.75,4.78-1.22,13.35-2.85,17.92-2.42,6.82-14,5.1-14,5.1s-13.7-.14-14.23-7.24C113.69,22.83,115.68,5.26,124.12.91Z"/><path class="cls-5" fill="#9b8945" d="M155.34,138a18.42,18.42,0,0,1-10-3c-3.6-2.31-8.28-7-10.16-16a5.54,5.54,0,0,1,10.85-2.25c1.1,5.29,3.48,7.79,5.29,8.95a7.13,7.13,0,0,0,5.46,1.06c4-.93,8.43-4,6.47-13.46A5.54,5.54,0,1,1,174.14,111c3.37,16.28-5.89,24.45-14.84,26.51A17.65,17.65,0,0,1,155.34,138Z"/></g></g></svg>
