<svg xmlns="http://www.w3.org/2000/svg" viewBox="0 0 500
139.86"><defs><style>.cls-1{fill:#dfd589;}.cls-2{fill:#9b8945;}.cls-3{fill:#ece6b8;}.cls-4{fill:#eae4b2;}</style></defs><title>patater-mash</title><g
id="Layer_2" data-name="Layer 2"><g id="patater-mash"><path class="cls-1"
fill="#dfd589"
d="M400.8,139.86c4.69-13.67,35.69-63.82,24.53-78.13C411.52,66.16,398,49.58,387,59.31c-23.3-21.77-27.29,8.26-27.32,20.82-.06,21.7-10.29,41-42.1,59.74"/><path
class="cls-2" fill="#9b8945"
d="M414.12,120.42c-3.17,6.31-5.91,11.77-7,15l-7.77-2.67c1.29-3.76,4.14-9.44,7.44-16,7.14-14.23,20-39.85,16.44-50.33-6.38.89-12.38-1.35-17.76-3.37-7.4-2.77-11.78-4.16-15.75-.66a4.1,4.1,0,0,1-5.52-.08C378.56,57,373.91,54.83,371.1,56c-4.77,2.06-7.29,13.68-7.32,24.09-.06,22.59-10.92,41.29-32.29,55.59l-4.57-6.82c19-12.69,28.59-29.1,28.64-48.79,0-6.17.94-26.7,12.27-31.6,5.54-2.4,12.07-.53,19.43,5.57,7-4,14.43-1.21,21.07,1.28,5.57,2.08,10.82,4.05,15.74,2.47a4.11,4.11,0,0,1,4.49,1.39c9.9,12.69-3.6,39.59-14.45,61.21"/><path
class="cls-3" fill="#ece6b8"
d="M444.85,107.41c-7.58-11-31.63-8.24-32.56,6.67-.85-11.3-9.88-17.68-21.52-15,7.52-20.89-34.16-22.39-18.56,12.82C388.17,147.93,467.58,140.43,444.85,107.41Z"/><path
class="cls-1" fill="#dfd589"
d="M490.1,136.71c1.36-6.39,8.47-41.36,2.85-46.68-1.67-1.58-2.77-.79-4.77.34-5.7,3.22-15.29,5.46-20.92,7.31-.77.25-.45,2.69,0,5a33.92,33.92,0,0,1,1,4.08s-.59-2-1-4.08c-1.87-5.9-6.6-15.92-16.83-14s-12.53,20.61-16.91,28.64c-5.58,10.24-11.43,16.8-19.1,22.54h74.88C489.6,138.81,489.88,137.77,490.1,136.71Z"/><path
class="cls-2" fill="#9b8945"
d="M437.89,119.69a66.1,66.1,0,0,0,3.93-9.94c2.2-6.49,5.22-15.39,9.57-16.22a6.59,6.59,0,0,1,5.3,1c2.69,1.86,4.53,5.58,5.62,8.72.36,1.76.88,3.47,1.31,4.91a4.93,4.93,0,0,0,9.58-2.24,37.09,37.09,0,0,0-1.13-4.55l1.74-.51c5.39-1.58,11.46-3.35,16.07-5.79,1,5.44-.36,20.7-4.6,40.63q-.45,2.1-1,4.18h10.11c.16-.71.33-1.41.48-2.13,2.31-10.84,9.32-43.8,1.42-51.29-4.23-4-8.44-1.59-10.23-.56l-.35.2c-3.69,2.08-9.8,3.87-14.71,5.31l-3.14.93a21.55,21.55,0,0,0-5.58-5.87,16.51,16.51,0,0,0-12.78-2.6c-10,1.91-13.91,13.46-17.06,22.74a60.44,60.44,0,0,1-3.25,8.39c-6.45,11.82-13.08,18.3-23.47,24.89H422.3C428.26,134.58,433.15,128.38,437.89,119.69Z"/><path
class="cls-4" fill="#eae4b2" d="M450.5,104.88a3.43,3.43,0,0,0,3.76,2.38,4.16,4.16,0,0,0,3.29-4.25c-.13-4.84-6.71-3.89-7.22.15A3.85,3.85,0,0,0,450.5,104.88Z"/><path class="cls-4" fill="#eae4b2" d="M454.48,121.4a5.22,5.22,0,0,0,5.73,3.63c3-.42,5.09-3.45,5-6.47-.2-7.38-10.22-5.93-11,.23A5.83,5.83,0,0,0,454.48,121.4Z"/><path class="cls-3" fill="#ece6b8" d="M57.7,94.72C44.38,75.37,7.24,90.89,19.6,118.23,32.88,147.59,78.29,124.61,57.7,94.72Z"/><path class="cls-3" fill="#ece6b8" d="M84.48,58.17C73.93,42.85,40.89,49.76,50.67,71.4,61.18,94.64,100.77,81.83,84.48,58.17Z"/><path class="cls-3" fill="#ece6b8" d="M72.74,83.55c-10.56-15.34-40-3-30.2,18.63C53.06,125.46,89.05,107.24,72.74,83.55Z"/><path class="cls-3" fill="#ece6b8" d="M165.13,32.79C154.58,17.48,121.54,24.39,131.32,46,141.83,69.27,181.42,56.45,165.13,32.79Z"/><path class="cls-3" fill="#ece6b8" d="M195.74,10.67c-15-21.77-56.79-4.3-42.88,26.45C167.81,70.17,218.91,44.3,195.74,10.67Z"/><path class="cls-3" fill="#ece6b8" d="M226.83,26.55c-5.85,26.57,38.44,51.76,63,55,12.78,1.67,45.54-6.4,49.35-22.41,1.94-8.15-7.1-26.83-14.47-13.12,13.45-25-30.64-34.06-33.82-14.67C308.15-4,235.86-14.51,226.83,26.55Z"/><path class="cls-2" fill="#9b8945" d="M395.79,135.33c-4-23.75-14.36-46.54-27.3-65C355.76,52.16,337,40.21,314.75,39.46c-18.55-.63-28.86,3.84-34.57,9.45-3.53-9.51-8.22-19.47-18.1-27-15-11.43-34.36-15.71-54.54-12.05A94,94,0,0,0,153.6,41c-17.37-7.77-35-8.21-51.39-1.17C69.46,53.88,47,95.71,39.33,130.95c-.64,2.93-1.23,5.91-1.81,8.92H435.75C430.07,121,403.69,116.64,395.79,135.33Z"/><path class="cls-1" fill="#dfd589" d="M377.67,136.64c-2.89-36.62-20.19-83.81-63.32-85.25C278.21,50.18,280.23,70,296.79,83.67c11.43,9.47,31.81,13.62,43,15.95-19.19,1.94-41.36-1.94-55.43-15.88-15.11-15-12.52-39.36-29.56-52.35-31.72-24.19-79.11-4.67-97.71,25C101.5,22.48,61.41,85.83,51,133.49q-.69,3.16-1.32,6.37H377.88C377.82,138.79,377.76,137.72,377.67,136.64Z"/><path class="cls-3" fill="#ece6b8" d="M87.86,27.5c-6.8-9.86-24.64-3.12-19.62,8.86C73.4,48.66,97.33,41.27,87.86,27.5Z"/><path class="cls-3" fill="#ece6b8" d="M358.37,10.54C353,2.8,339,8.09,343,17.5,347,27.14,365.8,21.35,358.37,10.54Z"/><path class="cls-2" fill="#9b8945" d="M197.78,60c-3.72-.09-8.08-4.81-6.1-8.46,1.64-3,7.28-3.06,9.53-1.27C205.88,54,203.71,60.15,197.78,60Z"/><path class="cls-2" fill="#9b8945" d="M142.6,63c-2.6-.06-5.65-3.36-4.27-5.91,1.15-2.13,5.09-2.14,6.66-.89C148.26,58.86,146.74,63.15,142.6,63Z"/><path class="cls-2" fill="#9b8945" d="M263.66,69c-2.59-.06-5.63-3.35-4.25-5.89,1.14-2.12,5.06-2.13,6.63-.88C269.29,64.85,267.77,69.12,263.66,69Z"/><path class="cls-2" fill="#9b8945" d="M100.61,75c-2.38-.05-5.16-3.07-3.9-5.4,1.05-1.95,4.65-2,6.09-.81C105.78,71.15,104.39,75.07,100.61,75Z"/><path class="cls-2" fill="#9b8945" d="M343.81,62.1c2.82-.62,10.23,1.73,7,5.75C346.77,72.88,342,62.51,343.81,62.1Z"/><path class="cls-2" fill="#9b8945" d="M297.61,55.85c-1.65,2.37-8.7,5.65-9,.5C288.14,49.91,298.7,54.3,297.61,55.85Z"/><path class="cls-2" fill="#9b8945" d="M134.87,88.35a16,16,0,0,0,4.68-3.47,13.55,13.55,0,0,0,.36,2.25,3,3,0,0,1-.79,2.07c-2.11,2.45-5.51,3.09-8.53,3.66-1.37.26-2.75.46-4.12.7-.45.08-2.76.23-2.92.79-.95,3.13-.06,5.2-.22,8.39-2.81,2.65-10.11,3.87-10.79-1.64.88,7.2-6,7.61-10.92,6.71-.34-6.16-2.36-9.48,3.18-12.25C111.88,92,131.67,89.93,134.87,88.35Z"/><path class="cls-3" fill="#ece6b8" d="M405.39,79.88c1.56-1.22,1.77-3.59,1.36-5.45-.48-2.16-1.91-4.56-4.18-5.17-4.77-1.28-7.48,4.7-5.14,8.3,1.39,2.14,4.83,3.88,7.29,2.73A3.47,3.47,0,0,0,405.39,79.88Z"/><path class="cls-3" fill="#ece6b8" d="M453.55,73.86c1.56-1.22,1.77-3.59,1.36-5.45-.48-2.16-1.92-4.56-4.19-5.17-4.77-1.28-7.48,4.7-5.14,8.3,1.39,2.14,4.83,3.88,7.29,2.73A3.43,3.43,0,0,0,453.55,73.86Z"/><path class="cls-3" fill="#ece6b8" d="M119.33,17.83c1.56-1.22,1.77-3.59,1.36-5.45-.48-2.16-1.91-4.56-4.18-5.17-4.77-1.28-7.48,4.7-5.14,8.3,1.39,2.14,4.83,3.88,7.29,2.73A3.46,3.46,0,0,0,119.33,17.83Z"/><path class="cls-4" fill="#eae4b2" d="M71.94,103.09a7.75,7.75,0,0,0,5.2,3.17c3.59.48,8.16-1.91,9.46-5.34a8.21,8.21,0,0,0-3.33-9.61,13,13,0,0,0-6.1-2C69.19,89.32,68.25,98.15,71.94,103.09Z"/><path class="cls-4" fill="#eae4b2" d="M302.08,70.38a4.34,4.34,0,0,0,4.77,3A5.27,5.27,0,0,0,311,68c-.16-6.14-8.51-4.93-9.16.19A4.88,4.88,0,0,0,302.08,70.38Z"/><path class="cls-4" fill="#eae4b2" d="M82.8,84.05c1,5.82,9.16,3,9-2.37-.19-7.17-9.35-4.67-9.1,1.47A7.35,7.35,0,0,0,82.8,84.05Z"/><path class="cls-4" fill="#eae4b2" d="M242.32,46.6c7.29-.52,9.19-14-.17-14.42C232,31.71,229.91,47.48,242.32,46.6Z"/><path class="cls-4" fill="#eae4b2" d="M206.8,49c-2.43.32-3,4.2-.54,5.08C211.13,55.85,212.06,48.36,206.8,49Z"/><path class="cls-4" fill="#eae4b2" d="M197.23,88.63c-3.37.44-4.16,5.83-.75,7C203.22,98.08,204.51,87.69,197.23,88.63Z"/><path class="cls-4" fill="#eae4b2" d="M265.26,88.76c-4.6.6-5.68,7.95-1,9.61C273.45,101.64,275.21,87.46,265.26,88.76Z"/><path class="cls-4" fill="#eae4b2" d="M224.46,27.56c-2.43.31-3,4.21-.54,5.08C228.79,34.37,229.72,26.88,224.46,27.56Z"/><path class="cls-4" fill="#eae4b2" d="M209.44,33.1c-2.44.32-3,4.2-.54,5.08C213.77,39.91,214.7,32.42,209.44,33.1Z"/><path class="cls-4" fill="#eae4b2" d="M95.13,89.42c-2.25.29-2.77,3.88-.5,4.69C99.13,95.71,100,88.79,95.13,89.42Z"/><path class="cls-4" fill="#eae4b2" d="M327.1,69.87c-2.29.29-2.82,3.94-.51,4.76C331.16,76.26,332,69.23,327.1,69.87Z"/><path class="cls-4" fill="#eae4b2" d="M319.38,57.09c-3.06.39-3.77,5.28-.68,6.38C324.82,65.65,326,56.23,319.38,57.09Z"/><path class="cls-4" fill="#eae4b2" d="M254.42,42.87c-3.26.42-4,5.63-.72,6.8C260.22,52,261.46,42,254.42,42.87Z"/><path class="cls-4" fill="#eae4b2" d="M274.51,100.77c-2.83.37-3.49,4.89-.63,5.91C279.55,108.7,280.63,100,274.51,100.77Z"/><path class="cls-2" fill="#9b8945" d="M228.24,100.33a9.82,9.82,0,0,1-8.46-5.06,11,11,0,0,1-12.94-3.54c-3.33-4.25-3.93-11.21,2.61-16.45a2.46,2.46,0,1,1,3.08,3.85c-4.22,3.38-3.61,7.26-1.81,9.56a6,6,0,0,0,8.65,1.14l2.7-2.07L223.19,91c1.35,3.86,4.06,4.76,5.94,4.34a4,4,0,0,0,3.08-4.55,2.46,2.46,0,1,1,4.91-.45,8.87,8.87,0,0,1-6.94,9.81A9.14,9.14,0,0,1,228.24,100.33Z"/><path class="cls-1" fill="#dfd589" d="M38.5,115.91c-3.88-7.54-7.63-15.39-12.33-22.47-2.88-4.33-3.88-5.25-8.91-2.6-3,1.6-9.45,6.32-11,9.61-3.07,6.61-.16,11.34,1.36,17.53,1.62,6.61,1.12,14.39,1.51,21.19,0,.23,0,.47,0,.7h37C46.19,131.54,42.13,123,38.5,115.91Z"/><path class="cls-2" fill="#9b8945" d="M14.07,138.89c-.11-1.92-.14-3.93-.18-6.05-.09-5.33-.19-10.85-1.46-16-.37-1.5-.79-2.87-1.2-4.19-1.4-4.5-2-6.8-.48-10.09.72-1.56,5.66-5.67,8.8-7.32.61-.32,1.05-.53,1.38-.67.42.56.92,1.32,1.13,1.63a179.1,179.1,0,0,1,10,17.9q1,2.06,2.09,4.1c3.58,7,7.16,14.68,7.1,21.7h9.84c0-10.25-5.08-20.19-8.18-26.21q-1-2-2.07-4A186.65,186.65,0,0,0,30.27,90.71C26.35,84.8,22.75,82.38,15,86.48,13,87.53,4.32,93,1.81,98.37c-3.19,6.88-1.49,12.35,0,17.17.38,1.23.75,2.4,1,3.61C3.87,123.27,4,128.22,4,133c0,2.13.07,4.33.19,6.44l0,.42h9.87C14.11,139.54,14.09,139.21,14.07,138.89Z"/></g></g></svg>
