<svg xmlns="http://www.w3.org/2000/svg" viewBox="0 0 500
500"><defs><style>.cls-1{fill:none;}.cls-2{fill:#b3af82;}</style></defs><title>russetted</title><g
id="Layer_2" data-name="Layer 2"><g id="russetted"><rect class="cls-1"
fill="none" width="500" height="500"/><path class="cls-2" fill="#b3af82" d="M341.17,425.81c-6.47,10.57-6.13,29.6,6.21,35.52,14.12,6.77,30.5-.19,34.82-15.13,3.34-11.54,2-21.48-8.62-27.93C361.91,411.21,348.38,414,341.17,425.81Z"/><path class="cls-2" fill="#b3af82" d="M41.8,431.73c8.31-2,15.75-11.21,11.49-19.5-5.4-10.49-17.75-10.21-25.39-2.48C18.5,419.28,29.47,434.7,41.8,431.73Z"/><path class="cls-2" fill="#b3af82" d="M469.36,325.36c-11-8.5-28.6-5.52-38.82,2.84-14,11.45-9,29,2.78,40.09,11,10.35,31.73,14.61,43,2C488.81,356.35,482.84,335.76,469.36,325.36Z"/><path class="cls-2" fill="#b3af82" d="M453,285.51c5.13-10.45,21.43-6.49,17.77,5.9C466.52,305.81,446.57,298.64,453,285.51Z"/><path class="cls-2" fill="#b3af82" d="M379.77,356.58c-16.82,12.42,1,38.36,18.37,27C416.24,371.81,397.44,343.53,379.77,356.58Z"/><path class="cls-2" fill="#b3af82" d="M278.52,461.58c-13.54,10,1,31,14.89,21.68C307.77,473.62,292.55,451.21,278.52,461.58Z"/><path class="cls-2" fill="#b3af82" d="M408.12,460c-9.71,7.17.72,22.23,10.75,15.35S418.09,452.65,408.12,460Z"/><path class="cls-2" fill="#b3af82" d="M458.47,445.56c-9.71,7.17.72,22.23,10.75,15.35S468.43,438.21,458.47,445.56Z"/><path class="cls-2" fill="#b3af82" d="M121.9,432.5c-24.37,18.37,1,57.86,26.85,40.84C175.55,455.68,148.19,412.68,121.9,432.5Z"/><path class="cls-2" fill="#b3af82" d="M419.88,409.16c-7.52,4.58-11.8,18.44-6.83,26.2,5.24,8.18,18.35,7.07,25.27,2.05C456.81,424,439.57,397.17,419.88,409.16Z"/><path class="cls-2" fill="#b3af82" d="M72.6,36.81c-7.52,4.58-11.8,18.44-6.83,26.2C71,71.18,84.13,70.07,91,65.06,109.53,51.66,92.29,24.82,72.6,36.81Z"/><path class="cls-2" fill="#b3af82" d="M267.56,294.06c-7.9-1.06-9.68,13.65.23,12.93C275.4,306.44,275.35,293.52,267.56,294.06Z"/><path class="cls-2" fill="#b3af82" d="M479.35,67.16c-7.9-1.06-9.68,13.65.23,12.93C487.19,79.54,487.14,66.62,479.35,67.16Z"/><path class="cls-2" fill="#b3af82" d="M412.62,237.69c-12.49-1.68-16.2,19.75-1.64,21.54C425.71,261,426.33,236.73,412.62,237.69Z"/><path class="cls-2" fill="#b3af82" d="M477.08,197.87c-12.49-1.68-16.2,19.75-1.64,21.54C490.16,221.23,490.78,196.92,477.08,197.87Z"/><path class="cls-2" fill="#b3af82" d="M289.58,323c-9.54,6.32-1.33,18.84,8.59,15.68C310.11,334.86,299.41,316.47,289.58,323Z"/><path class="cls-2" fill="#b3af82" d="M23.36,29.87C13.82,36.19,22,48.72,32,45.56,43.9,41.75,33.2,23.36,23.36,29.87Z"/><path class="cls-2" fill="#b3af82" d="M48.44,88.8c-9.54,6.32-1.33,18.84,8.59,15.68C69,100.68,58.27,82.29,48.44,88.8Z"/><path class="cls-2" fill="#b3af82" d="M76.24,208.11c-9.54,6.32-1.33,18.84,8.59,15.68C96.78,220,86.08,201.59,76.24,208.11Z"/><path class="cls-2" fill="#b3af82" d="M211.08,387c-9.54,6.32-1.33,18.84,8.59,15.68C231.61,398.86,220.91,380.47,211.08,387Z"/><path class="cls-2" fill="#b3af82" d="M466.08,391c-9.54,6.32-1.33,18.84,8.59,15.68C486.61,402.86,475.91,384.47,466.08,391Z"/><path class="cls-2" fill="#b3af82" d="M213,117.14c-8.51,5.64-1.19,16.81,7.66,14C231.29,127.73,221.74,111.33,213,117.14Z"/><path class="cls-2" fill="#b3af82" d="M164.07,20.6c-8.51,5.64-1.19,16.81,7.66,14C182.39,31.2,172.85,14.79,164.07,20.6Z"/><path class="cls-2" fill="#b3af82" d="M19.71,362.73c-13.69,9.89-.12,30.65,11.64,20.41C40.85,374.87,33.23,353,19.71,362.73Z"/><path class="cls-2" fill="#b3af82" d="M123.44,15.68c-15.9,11.48-.14,35.6,13.52,23.7C148,29.78,139.15,4.33,123.44,15.68Z"/></g></g></svg>
