<?xml version="1.0" standalone="no"?>
<!DOCTYPE svg PUBLIC "-//W3C//DTD SVG 20010904//EN"
 "http://www.w3.org/TR/2001/REC-SVG-20010904/DTD/svg10.dtd">
<svg version="1.0" xmlns="http://www.w3.org/2000/svg"
 width="264.000000pt" height="264.000000pt" viewBox="0 0 264.000000 264.000000"
 preserveAspectRatio="xMidYMid meet">
<metadata>
Created by potrace 1.11, written by Peter Selinger 2001-2013
</metadata>
<g transform="translate(0.000000,264.000000) scale(0.100000,-0.100000)"
fill="#000000" stroke="none">
<path d="M1432 2578 c-6 -7 -22 -38 -35 -68 -18 -38 -26 -48 -26 -32 -1 12 -5
22 -10 22 -11 0 -16 -13 -46 -105 -25 -77 -13 -69 -136 -89 -20 -3 -66 -16
-102 -29 -201 -73 -384 -236 -504 -447 -56 -98 -124 -286 -138 -383 -3 -17 -9
-59 -14 -92 -12 -75 -12 -301 0 -375 16 -104 18 -115 34 -175 80 -310 282
-570 530 -680 109 -48 206 -65 345 -61 69 2 134 6 145 9 11 3 41 10 67 16 58
13 156 50 234 87 202 97 361 264 418 440 24 74 27 90 33 189 5 80 1 112 -23
235 -3 14 -17 54 -31 90 -26 63 -40 91 -89 176 -13 22 -22 43 -20 45 2 2 7 29
11 59 10 76 13 98 24 166 24 158 -4 337 -67 423 -83 113 -270 234 -440 286
l-63 18 5 42 c4 39 -6 76 -18 64 -3 -3 -7 -17 -8 -32 -3 -34 -11 -26 -14 16
-10 122 -14 146 -25 170 -14 30 -22 33 -37 15z"/>
</g>
</svg>
